<?xml version="1.0" encoding="us-ascii" standalone="no"?><svg xmlns="http://www.w3.org/2000/svg" xmlns:xlink="http://www.w3.org/1999/xlink" contentStyleType="text/css" height="638.4px" preserveAspectRatio="none" style="width:540px;height:638px;" version="1.1" viewBox="0 0 540 638" width="540px" zoomAndPan="magnify"><defs/><g><!--cluster checks--><g id="cluster_checks"><path d="M16,316 L56.8,316 A3,3 0 0 1 58.8,318 L64.4,335.6969 L524,335.6969 A2,2 0 0 1 526,337.6969 L526,630.8 A2,2 0 0 1 524,632.8 L16,632.8 A2,2 0 0 1 14,630.8 L14,318 A2,2 0 0 1 16,316 " fill="none" style="stroke:#000000;stroke-width:1.2000000000000002;"/><line style="stroke:#000000;stroke-width:1.2000000000000002;" x1="14" x2="64.4" y1="335.6969" y2="335.6969"/><text fill="#000000" font-family="sans-serif" font-size="11.2" font-weight="bold" lengthAdjust="spacing" textLength="40" x="17.2" y="329.6859">checks</text></g><!--class Check--><g id="elem_Check"><rect codeLine="2" fill="#F1F1F1" height="53.2969" id="Check" rx="2" ry="2" style="stroke:#181818;stroke-width:0.4000000000000001;" width="258.4" x="140.8" y="345.6"/><ellipse cx="245.8" cy="358.4" fill="#B4A7E5" rx="8.8" ry="8.8" style="stroke:#181818;stroke-width:0.8000000000000002;"/><path d="M246.5625,355.7125 L246.5625,361.0375 L247.9375,361.0375 Q248.425,361.0375 248.6375,361.225 Q248.85,361.4125 248.85,361.725 Q248.85,362.025 248.6375,362.2125 Q248.425,362.4 247.9375,362.4 L243.825,362.4 Q243.3375,362.4 243.125,362.2125 Q242.9125,362.025 242.9125,361.7125 Q242.9125,361.4125 243.125,361.225 Q243.3375,361.0375 243.825,361.0375 L245.2,361.0375 L245.2,355.7125 L243.825,355.7125 Q243.3375,355.7125 243.125,355.525 Q242.9125,355.3375 242.9125,355.025 Q242.9125,354.725 243.125,354.5375 Q243.3375,354.35 243.825,354.35 L247.9375,354.35 Q248.425,354.35 248.6375,354.5375 Q248.85,354.725 248.85,355.025 Q248.85,355.3375 248.6375,355.525 Q248.425,355.7125 247.9375,355.7125 L246.5625,355.7125 Z " fill="#000000"/><ellipse cx="266.2" cy="358" fill="#84BE84" rx="2.4" ry="2.4" style="stroke:#038048;stroke-width:0.8000000000000002;"/><text fill="#000000" font-family="sans-serif" font-size="11.2" font-style="italic" lengthAdjust="spacing" textLength="32.8" x="271" y="363.0375">Check</text><line style="stroke:#181818;stroke-width:0.4000000000000001;" x1="141.6" x2="398.4" y1="371.2" y2="371.2"/><line style="stroke:#181818;stroke-width:0.4000000000000001;" x1="141.6" x2="398.4" y1="377.6" y2="377.6"/><ellipse cx="149.6" cy="389.4484" fill="#84BE84" rx="2.4" ry="2.4" style="stroke:#038048;stroke-width:0.8000000000000002;"/><text fill="#000000" font-family="sans-serif" font-size="11.2" font-style="italic" lengthAdjust="spacing" textLength="237.6" x="156.8" y="392.8859">run(classNode: MyClassNode): List&lt;Message&gt;</text></g><!--class PrincipleOfLeastKnowledge--><g id="elem_PrincipleOfLeastKnowledge"><rect codeLine="6" fill="#F1F1F1" height="172.4719" id="PrincipleOfLeastKnowledge" rx="2" ry="2" style="stroke:#181818;stroke-width:0.4000000000000001;" width="485.6" x="27.2" y="447.2"/><ellipse cx="193" cy="460" fill="#ADD1B2" rx="8.8" ry="8.8" style="stroke:#181818;stroke-width:0.8000000000000002;"/><path d="M195.2125,456.7 Q195.3375,456.525 195.4875,456.4375 Q195.6375,456.35 195.8125,456.35 Q196.1125,456.35 196.3,456.5625 Q196.4875,456.7625 196.4875,457.25 L196.4875,458.4125 Q196.4875,458.9 196.3,459.1125 Q196.1125,459.325 195.8125,459.325 Q195.5375,459.325 195.375,459.1625 Q195.2125,459.0125 195.125,458.6 Q195.0875,458.3125 194.9375,458.1625 Q194.675,457.8625 194.1875,457.6875 Q193.7,457.5125 193.2,457.5125 Q192.5875,457.5125 192.075,457.775 Q191.575,458.0375 191.175,458.6375 Q190.7875,459.2375 190.7875,460.0625 L190.7875,460.9375 Q190.7875,461.925 191.5,462.5875 Q192.2125,463.2375 193.4875,463.2375 Q194.2375,463.2375 194.7625,463.0375 Q195.075,462.9125 195.4125,462.5625 Q195.625,462.35 195.7375,462.2875 Q195.8625,462.225 196.025,462.225 Q196.2875,462.225 196.4875,462.4375 Q196.7,462.6375 196.7,462.9125 Q196.7,463.1875 196.425,463.5125 Q196.025,463.975 195.3875,464.2375 Q194.525,464.6 193.4875,464.6 Q192.275,464.6 191.3125,464.1 Q190.525,463.7 189.975,462.85 Q189.425,461.9875 189.425,460.9625 L189.425,460.0375 Q189.425,458.975 189.9125,458.0625 Q190.4125,457.1375 191.2875,456.65 Q192.1625,456.15 193.15,456.15 Q193.7375,456.15 194.25,456.2875 Q194.775,456.4125 195.2125,456.7 Z " fill="#000000"/><ellipse cx="213.4" cy="459.6" fill="#84BE84" rx="2.4" ry="2.4" style="stroke:#038048;stroke-width:0.8000000000000002;"/><text fill="#000000" font-family="sans-serif" font-size="11.2" lengthAdjust="spacing" textLength="138.4" x="218.2" y="464.6375">PrincipleOfLeastKnowledge</text><line style="stroke:#181818;stroke-width:0.4000000000000001;" x1="28" x2="512" y1="472.8" y2="472.8"/><rect fill="none" height="4.8" style="stroke:#C82930;stroke-width:0.8000000000000002;" width="4.8" x="33.6" y="482.2484"/><text fill="#000000" font-family="sans-serif" font-size="11.2" lengthAdjust="spacing" text-decoration="underline" textLength="208.8" x="43.2" y="488.0859">{final}METHOD_OPCODES: Set&lt;Integer&gt;</text><rect fill="none" height="4.8" style="stroke:#C82930;stroke-width:0.8000000000000002;" width="4.8" x="33.6" y="497.1453"/><text fill="#000000" font-family="sans-serif" font-size="11.2" lengthAdjust="spacing" textLength="259.2" x="43.2" y="502.9828">{final}instructionStack: Stack&lt;MyAbstractInsnNode&gt;</text><line style="stroke:#181818;stroke-width:0.4000000000000001;" x1="28" x2="512" y1="508.9938" y2="508.9938"/><ellipse cx="36" cy="520.8422" fill="#84BE84" rx="2.4" ry="2.4" style="stroke:#038048;stroke-width:0.8000000000000002;"/><text fill="#000000" font-family="sans-serif" font-size="11.2" lengthAdjust="spacing" textLength="234.4" x="43.2" y="524.2797">run(classNode: MyClassNode): List&lt;Message&gt;</text><rect fill="#F24D5C" height="4.8" style="stroke:#C82930;stroke-width:0.8000000000000002;" width="4.8" x="33.6" y="533.3391"/><text fill="#000000" font-family="sans-serif" font-size="11.2" lengthAdjust="spacing" textLength="304.8" x="43.2" y="539.1766">checkMethod(myMethodNode: MyMethodNode): List&lt;String&gt;</text><rect fill="#F24D5C" height="4.8" style="stroke:#C82930;stroke-width:0.8000000000000002;" width="4.8" x="33.6" y="548.2359"/><text fill="#000000" font-family="sans-serif" font-size="11.2" lengthAdjust="spacing" textLength="335.2" x="43.2" y="554.0734">isConstructor(myAbstractInsnNode: MyAbstractInsnNode): boolean</text><rect fill="#F24D5C" height="4.8" style="stroke:#C82930;stroke-width:0.8000000000000002;" width="4.8" x="33.6" y="563.1328"/><text fill="#000000" font-family="sans-serif" font-size="11.2" lengthAdjust="spacing" textLength="339.2" x="43.2" y="568.9703">getInvalidReceiverNode(myAbstractInsnNode: MyAbstractInsnNode,</text><text fill="#000000" font-family="sans-serif" font-size="11.2" lengthAdjust="spacing" textLength="269.6" x="43.2" y="583.8672">localVariableManager: LocalVariableManager): String</text><rect fill="#F24D5C" height="4.8" style="stroke:#C82930;stroke-width:0.8000000000000002;" width="4.8" x="33.6" y="592.9266"/><text fill="#000000" font-family="sans-serif" font-size="11.2" lengthAdjust="spacing" textLength="159.2" x="43.2" y="598.7641">removeMethodArgument(): void</text><rect fill="#F24D5C" height="4.8" style="stroke:#C82930;stroke-width:0.8000000000000002;" width="4.8" x="33.6" y="607.8234"/><text fill="#000000" font-family="sans-serif" font-size="11.2" lengthAdjust="spacing" textLength="464.8" x="43.2" y="613.6609">createMessagesForMethod(messageTexts: List&lt;String&gt;, className: String): List&lt;Message&gt;</text></g><!--class Linter--><g id="elem_Linter"><rect codeLine="19" fill="#F1F1F1" height="291.6469" id="Linter" rx="2" ry="2" style="stroke:#181818;stroke-width:0.4000000000000001;" width="528.8" x="5.6" y="5.6"/><ellipse cx="247.8" cy="18.4" fill="#ADD1B2" rx="8.8" ry="8.8" style="stroke:#181818;stroke-width:0.8000000000000002;"/><path d="M250.0125,15.1 Q250.1375,14.925 250.2875,14.8375 Q250.4375,14.75 250.6125,14.75 Q250.9125,14.75 251.1,14.9625 Q251.2875,15.1625 251.2875,15.65 L251.2875,16.8125 Q251.2875,17.3 251.1,17.5125 Q250.9125,17.725 250.6125,17.725 Q250.3375,17.725 250.175,17.5625 Q250.0125,17.4125 249.925,17 Q249.8875,16.7125 249.7375,16.5625 Q249.475,16.2625 248.9875,16.0875 Q248.5,15.9125 248,15.9125 Q247.3875,15.9125 246.875,16.175 Q246.375,16.4375 245.975,17.0375 Q245.5875,17.6375 245.5875,18.4625 L245.5875,19.3375 Q245.5875,20.325 246.3,20.9875 Q247.0125,21.6375 248.2875,21.6375 Q249.0375,21.6375 249.5625,21.4375 Q249.875,21.3125 250.2125,20.9625 Q250.425,20.75 250.5375,20.6875 Q250.6625,20.625 250.825,20.625 Q251.0875,20.625 251.2875,20.8375 Q251.5,21.0375 251.5,21.3125 Q251.5,21.5875 251.225,21.9125 Q250.825,22.375 250.1875,22.6375 Q249.325,23 248.2875,23 Q247.075,23 246.1125,22.5 Q245.325,22.1 244.775,21.25 Q244.225,20.3875 244.225,19.3625 L244.225,18.4375 Q244.225,17.375 244.7125,16.4625 Q245.2125,15.5375 246.0875,15.05 Q246.9625,14.55 247.95,14.55 Q248.5375,14.55 249.05,14.6875 Q249.575,14.8125 250.0125,15.1 Z " fill="#000000"/><ellipse cx="268.2" cy="18" fill="#84BE84" rx="2.4" ry="2.4" style="stroke:#038048;stroke-width:0.8000000000000002;"/><text fill="#000000" font-family="sans-serif" font-size="11.2" lengthAdjust="spacing" textLength="28.8" x="273" y="23.0375">Linter</text><line style="stroke:#181818;stroke-width:0.4000000000000001;" x1="6.4" x2="533.6" y1="31.2" y2="31.2"/><rect fill="none" height="4.8" style="stroke:#C82930;stroke-width:0.8000000000000002;" width="4.8" x="12" y="40.6484"/><text fill="#000000" font-family="sans-serif" font-size="11.2" lengthAdjust="spacing" textLength="178.4" x="21.6" y="46.4859">{final}creator: MyClassNodeCreator</text><rect fill="none" height="4.8" style="stroke:#C82930;stroke-width:0.8000000000000002;" width="4.8" x="12" y="55.5453"/><text fill="#000000" font-family="sans-serif" font-size="11.2" lengthAdjust="spacing" textLength="208.8" x="21.6" y="61.3828">{final}myClassNodes: List&lt;MyClassNode&gt;</text><rect fill="none" height="4.8" style="stroke:#C82930;stroke-width:0.8000000000000002;" width="4.8" x="12" y="70.4422"/><text fill="#000000" font-family="sans-serif" font-size="11.2" lengthAdjust="spacing" textLength="252.8" x="21.6" y="76.2797">{final}checkTypeToCheck: Map&lt;LintType, Check&gt;</text><rect fill="none" height="4.8" style="stroke:#C82930;stroke-width:0.8000000000000002;" width="4.8" x="12" y="85.3391"/><text fill="#000000" font-family="sans-serif" font-size="11.2" lengthAdjust="spacing" textLength="385.6" x="21.6" y="91.1766">{final}transformationTypeToTransformation: Map&lt;LintType, Transformation&gt;</text><rect fill="none" height="4.8" style="stroke:#C82930;stroke-width:0.8000000000000002;" width="4.8" x="12" y="100.2359"/><text fill="#000000" font-family="sans-serif" font-size="11.2" lengthAdjust="spacing" textLength="284.8" x="21.6" y="106.0734">{final}diagramTypeToDiagram: Map&lt;LintType, Diagram&gt;</text><rect fill="none" height="4.8" style="stroke:#C82930;stroke-width:0.8000000000000002;" width="4.8" x="12" y="115.1328"/><text fill="#000000" font-family="sans-serif" font-size="11.2" lengthAdjust="spacing" textLength="353.6" x="21.6" y="120.9703">{final}packageToMyClassNode: Map&lt;String, List&lt;MyASMClassNode&gt;&gt;</text><line style="stroke:#181818;stroke-width:0.4000000000000001;" x1="6.4" x2="533.6" y1="126.9813" y2="126.9813"/><ellipse cx="14.4" cy="138.8297" fill="#84BE84" rx="2.4" ry="2.4" style="stroke:#038048;stroke-width:0.8000000000000002;"/><text fill="#000000" font-family="sans-serif" font-size="11.2" lengthAdjust="spacing" textLength="384" x="21.6" y="142.2672">Linter(classPaths: List&lt;String&gt;, myClassNodeCreator: MyClassNodeCreator,</text><text fill="#000000" font-family="sans-serif" font-size="11.2" lengthAdjust="spacing" textLength="276.8" x="21.6" y="157.1641">outputPath: String, fileToPackage:Map&lt;String, String&gt;)</text><ellipse cx="14.4" cy="168.6234" fill="#84BE84" rx="2.4" ry="2.4" style="stroke:#038048;stroke-width:0.8000000000000002;"/><text fill="#000000" font-family="sans-serif" font-size="11.2" lengthAdjust="spacing" textLength="314.4" x="21.6" y="172.0609">runSelectedChecks(lintTypes: Set&lt;LintType&gt;): List&lt;Message&gt;</text><ellipse cx="14.4" cy="183.5203" fill="#84BE84" rx="2.4" ry="2.4" style="stroke:#038048;stroke-width:0.8000000000000002;"/><text fill="#000000" font-family="sans-serif" font-size="11.2" lengthAdjust="spacing" textLength="392" x="21.6" y="186.9578">runSelectedTransformations(transformations: Set&lt;LintType&gt;): List&lt;Message&gt;</text><ellipse cx="14.4" cy="198.4172" fill="#84BE84" rx="2.4" ry="2.4" style="stroke:#038048;stroke-width:0.8000000000000002;"/><text fill="#000000" font-family="sans-serif" font-size="11.2" lengthAdjust="spacing" textLength="374.4" x="21.6" y="201.8547">generateDiagrams(Set&lt;LintType&gt; diagrams):Map&lt;StringBuilder,LintType&gt;</text><rect fill="#F24D5C" height="4.8" style="stroke:#C82930;stroke-width:0.8000000000000002;" width="4.8" x="12" y="210.9141"/><text fill="#000000" font-family="sans-serif" font-size="11.2" lengthAdjust="spacing" textLength="194.4" x="21.6" y="216.7516">populateMaps(outputPath: String):void</text><rect fill="#F24D5C" height="4.8" style="stroke:#C82930;stroke-width:0.8000000000000002;" width="4.8" x="12" y="225.8109"/><text fill="#000000" font-family="sans-serif" font-size="11.2" lengthAdjust="spacing" textLength="244" x="21.6" y="231.6484">populateTransformMap(outputPath: String): void</text><rect fill="#F24D5C" height="4.8" style="stroke:#C82930;stroke-width:0.8000000000000002;" width="4.8" x="12" y="240.7078"/><text fill="#000000" font-family="sans-serif" font-size="11.2" lengthAdjust="spacing" textLength="132.8" x="21.6" y="246.5453">populateCheckMap(): void</text><rect fill="#F24D5C" height="4.8" style="stroke:#C82930;stroke-width:0.8000000000000002;" width="4.8" x="12" y="255.6047"/><text fill="#000000" font-family="sans-serif" font-size="11.2" lengthAdjust="spacing" textLength="140" x="21.6" y="261.4422">populateDiagramMap():void</text><rect fill="#F24D5C" height="4.8" style="stroke:#C82930;stroke-width:0.8000000000000002;" width="4.8" x="12" y="270.5016"/><text fill="#000000" font-family="sans-serif" font-size="11.2" lengthAdjust="spacing" textLength="508" x="21.6" y="276.3391">createClassNodes(classPaths: List&lt;String&gt;, fileToPackage:Map&lt;String, String&gt;): List&lt;MyClassNode&gt;</text><rect fill="#F24D5C" height="4.8" style="stroke:#C82930;stroke-width:0.8000000000000002;" width="4.8" x="12" y="285.3984"/><text fill="#000000" font-family="sans-serif" font-size="11.2" lengthAdjust="spacing" textLength="288.8" x="21.6" y="291.2359">runCheckOnAllNodes(lintType: LintType): List&lt;Message&gt;</text></g><!--link Linter to Check--><g id="link_Linter_Check"><path codeLine="39" d="M260.296,297.696 C260.816,315.784 261.2461,327.6419 262.5901,340.5299 " fill="none" id="Linter-to-Check" style="stroke:#181818;stroke-width:0.8000000000000002;"/><polygon fill="#181818" points="263.088,345.304,265.524,337.8109,262.6731,341.3256,259.1585,338.4747,263.088,345.304" style="stroke:#181818;stroke-width:0.8000000000000002;"/><text fill="#000000" font-family="sans-serif" font-size="10.4" lengthAdjust="spacing" textLength="4" x="257.3892" y="336.5163">*</text></g><!--link Linter to Check--><g id="link_Linter_Check"><path codeLine="40" d="M280.272,297.696 C279.72,315.784 279.2602,327.6447 277.8442,340.5327 " fill="none" id="Linter-to-Check-1" style="stroke:#181818;stroke-width:0.8000000000000002;stroke-dasharray:7.0,7.0;"/><polygon fill="#181818" points="277.32,345.304,281.2872,338.4965,277.7568,341.3279,274.9255,337.7976,277.32,345.304" style="stroke:#181818;stroke-width:0.8000000000000002;"/></g><!--reverse link Check to PrincipleOfLeastKnowledge--><g id="link_Check_PrincipleOfLeastKnowledge"><path codeLine="42" d="M270,413.952 C270,427.232 270,429.768 270,447.08 " fill="none" id="Check-backto-PrincipleOfLeastKnowledge" style="stroke:#181818;stroke-width:0.8000000000000002;stroke-dasharray:7.0,7.0;"/><polygon fill="none" points="270,399.552,265.2,413.952,274.8,413.952,270,399.552" style="stroke:#181818;stroke-width:0.8000000000000002;"/></g><!--SRC=[dLN1Zjem4Btp5TQUGXVu08IGA6pLLKb11VMwCiaGh7Nio7Pe4UNVQySsYHEWgt896SzxC_Dcna485JXvnncWv039kpptaFiz4wP0x742Q6wEK7rK7P_nJYg14tKH9OiIYgNypbCOe_Wqzo_zCLeIgIOnIAbZJAyCbruTfuAYjI0i8GM5rNu9MAflZF-YaEh4mhZ3irHOaUHotXE6wIL-sNvTBTvMw_bgyR8PemseoQlEF0CnRG4jW32TTfaemjb6wTern3mcyMdc2dfbafdiG_ppVvHPnQs4ZK4TU1hb9_l7KzHldcEZj11PYuB8ENTfSw59sfaQghPD4-uufu1Po9M1TZbYIj8Va00vWZ3U7oGT15oK9vZ-n8BW7OKOCrsxq6NSiFQDogQmC1S1EJ-25M4ciZ87fYBjU-GaROae02jm0iilN7X1hMKBlvKC5HmWsooSWm_-O1oRG-acSbajG6Fy_0HLkN0HZC3SsZg-UUtYyskWfbrkCopRKm5RNcsT3eABYKd560Ts5RimtIGczrpasCornMy3MvieFEqofWHd0kUMQc5VsXpEt0MxEsNB6xLQi6t4m2insyIr63NFizNUhjiQgqEdjtb7-bljgCULbweebQ7omp10Uq9rYckRwxYPdGlJxpMNVmCK4WLfrG8PKIU3j7UELsLwTyYQ7A7wCWhxzt7A31W8lHYk4p8ASCWrKVORrNqk2Kr13AvUTVSANfJKh1akPDHLh3yEzlBgVYr6usx2q6rS9QJ1tFLmPLcVqCLU2FLoFPYLV_VvuMRgjbMPhjYCKXlBztwCl8gtMwHl57UB38TJzFJfgIBojj5eQlUvrxDVsCcVqUZ-X_0l]--></g></svg>
