<?plantuml 1.2026.2beta3?><svg xmlns="http://www.w3.org/2000/svg" xmlns:xlink="http://www.w3.org/1999/xlink" contentStyleType="text/css" data-diagram-type="CLASS" height="558px" preserveAspectRatio="none" style="width:1086px;height:558px;" version="1.1" viewBox="0 0 1086 558" width="1086px" zoomAndPan="magnify"><defs/><g><!--class Adjacency--><g class="entity" data-qualified-name="Adjacency" data-source-line="3" id="ent0002"><rect fill="#F1F1F1" height="145.7813" rx="2.5" ry="2.5" style="stroke:#181818;stroke-width:0.5;" width="440.4492" x="52.24" y="379.4"/><ellipse cx="226.6653" cy="395.4" fill="#ADD1B2" rx="11" ry="11" style="stroke:#181818;stroke-width:1;"/><path d="M229.634,401.0406 Q229.0559,401.3375 228.4153,401.4781 Q227.7747,401.6344 227.0715,401.6344 Q224.5715,401.6344 223.2434,399.9938 Q221.9309,398.3375 221.9309,395.2125 Q221.9309,392.0875 223.2434,390.4313 Q224.5715,388.775 227.0715,388.775 Q227.7747,388.775 228.4153,388.9313 Q229.0715,389.0875 229.634,389.3844 L229.634,392.1031 Q229.009,391.525 228.4153,391.2594 Q227.8215,390.9781 227.1965,390.9781 Q225.8528,390.9781 225.1653,392.0563 Q224.4778,393.1188 224.4778,395.2125 Q224.4778,397.3063 225.1653,398.3844 Q225.8528,399.4469 227.1965,399.4469 Q227.8215,399.4469 228.4153,399.1813 Q229.009,398.9 229.634,398.3219 L229.634,401.0406 Z " fill="#000000"/><g data-visibility-modifier="PUBLIC_METHOD"><ellipse cx="252.1653" cy="394.9" fill="#84BE84" rx="3" ry="3" style="stroke:#038048;stroke-width:1;"/></g><text fill="#000000" font-family="sans-serif" font-size="14" lengthAdjust="spacing" textLength="72.0986" x="258.1653" y="400.2467">Adjacency</text><line style="stroke:#181818;stroke-width:0.5;" x1="53.24" x2="491.6892" y1="411.4" y2="411.4"/><g data-visibility-modifier="PRIVATE_FIELD"><rect fill="none" height="6" style="stroke:#C82930;stroke-width:1;" width="6" x="60.24" y="422.0484"/></g><text fill="#000000" font-family="sans-serif" font-size="14" lengthAdjust="spacing" textLength="328.3984" x="72.24" y="428.3951">roadToRoads: Map&lt;Location, Set&lt;Location&gt;&gt;</text><g data-visibility-modifier="PRIVATE_FIELD"><rect fill="none" height="6" style="stroke:#C82930;stroke-width:1;" width="6" x="60.24" y="438.3453"/></g><text fill="#000000" font-family="sans-serif" font-size="14" lengthAdjust="spacing" textLength="370.2344" x="72.24" y="444.692">roadToSettlements: Map&lt;Location, Set&lt;Location&gt;&gt;</text><g data-visibility-modifier="PRIVATE_FIELD"><rect fill="none" height="6" style="stroke:#C82930;stroke-width:1;" width="6" x="60.24" y="454.6422"/></g><text fill="#000000" font-family="sans-serif" font-size="14" lengthAdjust="spacing" textLength="414.4492" x="72.24" y="460.9889">settlementToSettlements: Map&lt;Location, Set&lt;Location&gt;&gt;</text><g data-visibility-modifier="PRIVATE_FIELD"><rect fill="none" height="6" style="stroke:#C82930;stroke-width:1;" width="6" x="60.24" y="470.9391"/></g><text fill="#000000" font-family="sans-serif" font-size="14" lengthAdjust="spacing" textLength="307.6787" x="72.24" y="477.2857">tileToTiles: Map&lt;Location, Set&lt;Location&gt;&gt;</text><g data-visibility-modifier="PRIVATE_FIELD"><rect fill="none" height="6" style="stroke:#C82930;stroke-width:1;" width="6" x="60.24" y="487.2359"/></g><text fill="#000000" font-family="sans-serif" font-size="14" lengthAdjust="spacing" textLength="299.6328" x="72.24" y="493.5826">settlementToPort: MapLocation, Location&gt;</text><line style="stroke:#181818;stroke-width:0.5;" x1="53.24" x2="491.6892" y1="500.8844" y2="500.8844"/><g data-visibility-modifier="PUBLIC_METHOD"><ellipse cx="63.24" cy="514.5328" fill="#84BE84" rx="3" ry="3" style="stroke:#038048;stroke-width:1;"/></g><text fill="#000000" font-family="sans-serif" font-size="14" lengthAdjust="spacing" textLength="83.0225" x="72.24" y="517.8795">Adjacency()</text></g><!--class AdjacencyInitializer--><g class="entity" data-qualified-name="AdjacencyInitializer" data-source-line="12" id="ent0003"><rect fill="#F1F1F1" height="129.4844" rx="2.5" ry="2.5" style="stroke:#181818;stroke-width:0.5;" width="526.9238" x="9" y="214.55"/><ellipse cx="194.4893" cy="230.55" fill="#A9DCDF" rx="11" ry="11" style="stroke:#181818;stroke-width:1;"/><path d="M194.5986,225.8938 L193.4424,230.9719 L195.7705,230.9719 L194.5986,225.8938 Z M193.1143,223.6594 L196.0986,223.6594 L199.458,236.05 L197.0049,236.05 L196.2393,232.9875 L192.958,232.9875 L192.208,236.05 L189.7705,236.05 L193.1143,223.6594 Z " fill="#000000"/><g data-visibility-modifier="PUBLIC_METHOD"><ellipse cx="219.9893" cy="230.05" fill="#84BE84" rx="3" ry="3" style="stroke:#038048;stroke-width:1;"/></g><text fill="#000000" font-family="sans-serif" font-size="14" font-style="italic" lengthAdjust="spacing" textLength="136.4453" x="225.9893" y="235.3967">AdjacencyInitializer</text><line style="stroke:#181818;stroke-width:0.5;" x1="10" x2="534.9238" y1="246.55" y2="246.55"/><g data-visibility-modifier="PRIVATE_FIELD"><rect fill="none" height="6" style="stroke:#C82930;stroke-width:1;" width="6" x="17" y="257.1984"/></g><text fill="#000000" font-family="sans-serif" font-size="14" lengthAdjust="spacing" textLength="113.5723" x="29" y="263.5451">fileName: String</text><g data-visibility-modifier="PRIVATE_FIELD"><rect fill="none" height="6" style="stroke:#C82930;stroke-width:1;" width="6" x="17" y="273.4953"/></g><text fill="#000000" font-family="sans-serif" font-size="14" lengthAdjust="spacing" textLength="268.0918" x="29" y="279.842">mapParamNames: List&lt;ParamName&gt;</text><line style="stroke:#181818;stroke-width:0.5;" x1="10" x2="534.9238" y1="287.1438" y2="287.1438"/><g data-visibility-modifier="PUBLIC_METHOD"><ellipse cx="20" cy="300.7922" fill="#84BE84" rx="3" ry="3" style="stroke:#038048;stroke-width:1;"/></g><text fill="#000000" font-family="sans-serif" font-size="14" lengthAdjust="spacing" textLength="500.9238" x="29" y="304.1389">AdjacencyInitializer(fileName: String, mapParamNames: ParamName[])</text><g data-visibility-modifier="PACKAGE_PRIVATE_METHOD"><polygon fill="#4177AF" points="20,313.0891,16,319.0891,24,319.0891" style="stroke:#1963A0;stroke-width:1;"/></g><text fill="#000000" font-family="sans-serif" font-size="14" lengthAdjust="spacing" textLength="180.168" x="29" y="320.4357">initializeAdjacency(): void</text><g data-visibility-modifier="PACKAGE_PRIVATE_METHOD"><polygon fill="#4177AF" points="20,329.3859,16,335.3859,24,335.3859" style="stroke:#1963A0;stroke-width:1;"/></g><text fill="#000000" font-family="sans-serif" font-size="14" font-style="italic" lengthAdjust="spacing" textLength="401.9873" x="29" y="336.7326">addToMap(argMap: Map&lt;ParamName, Character&gt;): void</text></g><!--class RoadToRoads--><g class="entity" data-qualified-name="RoadToRoads" data-source-line="20" id="ent0004"><rect fill="#F1F1F1" height="80.5938" rx="2.5" ry="2.5" style="stroke:#181818;stroke-width:0.5;" width="400.3975" x="637.76" y="7"/><ellipse cx="780.2444" cy="23" fill="#ADD1B2" rx="11" ry="11" style="stroke:#181818;stroke-width:1;"/><path d="M783.2131,28.6406 Q782.635,28.9375 781.9944,29.0781 Q781.3538,29.2344 780.6506,29.2344 Q778.1506,29.2344 776.8225,27.5938 Q775.51,25.9375 775.51,22.8125 Q775.51,19.6875 776.8225,18.0313 Q778.1506,16.375 780.6506,16.375 Q781.3538,16.375 781.9944,16.5313 Q782.6506,16.6875 783.2131,16.9844 L783.2131,19.7031 Q782.5881,19.125 781.9944,18.8594 Q781.4006,18.5781 780.7756,18.5781 Q779.4319,18.5781 778.7444,19.6563 Q778.0569,20.7188 778.0569,22.8125 Q778.0569,24.9063 778.7444,25.9844 Q779.4319,27.0469 780.7756,27.0469 Q781.4006,27.0469 781.9944,26.7813 Q782.5881,26.5 783.2131,25.9219 L783.2131,28.6406 Z " fill="#000000"/><g data-visibility-modifier="PUBLIC_METHOD"><ellipse cx="805.7444" cy="22.5" fill="#84BE84" rx="3" ry="3" style="stroke:#038048;stroke-width:1;"/></g><text fill="#000000" font-family="sans-serif" font-size="14" lengthAdjust="spacing" textLength="95.9287" x="811.7444" y="27.8467">RoadToRoads</text><line style="stroke:#181818;stroke-width:0.5;" x1="638.76" x2="1037.1575" y1="39" y2="39"/><g data-visibility-modifier="PRIVATE_FIELD"><rect fill="none" height="6" style="stroke:#C82930;stroke-width:1;" width="6" x="645.76" y="49.6484"/></g><text fill="#000000" font-family="sans-serif" font-size="14" lengthAdjust="spacing" textLength="267.5449" x="657.76" y="55.9951">map: Map&lt;Location, Set&lt;Location&gt;&gt;</text><line style="stroke:#181818;stroke-width:0.5;" x1="638.76" x2="1037.1575" y1="63.2969" y2="63.2969"/><g data-visibility-modifier="PUBLIC_METHOD"><ellipse cx="648.76" cy="76.9453" fill="#84BE84" rx="3" ry="3" style="stroke:#038048;stroke-width:1;"/></g><text fill="#000000" font-family="sans-serif" font-size="14" lengthAdjust="spacing" textLength="374.3975" x="657.76" y="80.292">RoadToRoads(map: Map&lt;Location, Set&lt;Location&gt;&gt;)</text></g><!--class RoadToSettlements--><g class="entity" data-qualified-name="RoadToSettlements" data-source-line="25" id="ent0005"><rect fill="#F1F1F1" height="80.5938" rx="2.5" ry="2.5" style="stroke:#181818;stroke-width:0.5;" width="442.2334" x="616.84" y="123"/><ellipse cx="759.3244" cy="139" fill="#ADD1B2" rx="11" ry="11" style="stroke:#181818;stroke-width:1;"/><path d="M762.2931,144.6406 Q761.715,144.9375 761.0744,145.0781 Q760.4338,145.2344 759.7306,145.2344 Q757.2306,145.2344 755.9025,143.5938 Q754.59,141.9375 754.59,138.8125 Q754.59,135.6875 755.9025,134.0313 Q757.2306,132.375 759.7306,132.375 Q760.4338,132.375 761.0744,132.5313 Q761.7306,132.6875 762.2931,132.9844 L762.2931,135.7031 Q761.6681,135.125 761.0744,134.8594 Q760.4806,134.5781 759.8556,134.5781 Q758.5119,134.5781 757.8244,135.6563 Q757.1369,136.7188 757.1369,138.8125 Q757.1369,140.9063 757.8244,141.9844 Q758.5119,143.0469 759.8556,143.0469 Q760.4806,143.0469 761.0744,142.7813 Q761.6681,142.5 762.2931,141.9219 L762.2931,144.6406 Z " fill="#000000"/><g data-visibility-modifier="PUBLIC_METHOD"><ellipse cx="784.8244" cy="138.5" fill="#84BE84" rx="3" ry="3" style="stroke:#038048;stroke-width:1;"/></g><text fill="#000000" font-family="sans-serif" font-size="14" lengthAdjust="spacing" textLength="137.7646" x="790.8244" y="143.8467">RoadToSettlements</text><line style="stroke:#181818;stroke-width:0.5;" x1="617.84" x2="1058.0734" y1="155" y2="155"/><g data-visibility-modifier="PRIVATE_FIELD"><rect fill="none" height="6" style="stroke:#C82930;stroke-width:1;" width="6" x="624.84" y="165.6484"/></g><text fill="#000000" font-family="sans-serif" font-size="14" lengthAdjust="spacing" textLength="267.5449" x="636.84" y="171.9951">map: Map&lt;Location, Set&lt;Location&gt;&gt;</text><line style="stroke:#181818;stroke-width:0.5;" x1="617.84" x2="1058.0734" y1="179.2969" y2="179.2969"/><g data-visibility-modifier="PUBLIC_METHOD"><ellipse cx="627.84" cy="192.9453" fill="#84BE84" rx="3" ry="3" style="stroke:#038048;stroke-width:1;"/></g><text fill="#000000" font-family="sans-serif" font-size="14" lengthAdjust="spacing" textLength="416.2334" x="636.84" y="196.292">RoadToSettlements(map: Map&lt;Location, Set&lt;Location&gt;&gt;)</text></g><!--class SettlementToPort--><g class="entity" data-qualified-name="SettlementToPort" data-source-line="30" id="ent0006"><rect fill="#F1F1F1" height="80.5938" rx="2.5" ry="2.5" style="stroke:#181818;stroke-width:0.5;" width="380.9834" x="647.47" y="239"/><ellipse cx="766.7293" cy="255" fill="#ADD1B2" rx="11" ry="11" style="stroke:#181818;stroke-width:1;"/><path d="M769.698,260.6406 Q769.1199,260.9375 768.4793,261.0781 Q767.8387,261.2344 767.1355,261.2344 Q764.6355,261.2344 763.3074,259.5938 Q761.9949,257.9375 761.9949,254.8125 Q761.9949,251.6875 763.3074,250.0313 Q764.6355,248.375 767.1355,248.375 Q767.8387,248.375 768.4793,248.5313 Q769.1355,248.6875 769.698,248.9844 L769.698,251.7031 Q769.073,251.125 768.4793,250.8594 Q767.8855,250.5781 767.2605,250.5781 Q765.9168,250.5781 765.2293,251.6563 Q764.5418,252.7188 764.5418,254.8125 Q764.5418,256.9063 765.2293,257.9844 Q765.9168,259.0469 767.2605,259.0469 Q767.8855,259.0469 768.4793,258.7813 Q769.073,258.5 769.698,257.9219 L769.698,260.6406 Z " fill="#000000"/><g data-visibility-modifier="PUBLIC_METHOD"><ellipse cx="792.2293" cy="254.5" fill="#84BE84" rx="3" ry="3" style="stroke:#038048;stroke-width:1;"/></g><text fill="#000000" font-family="sans-serif" font-size="14" lengthAdjust="spacing" textLength="122.9648" x="798.2293" y="259.8467">SettlementToPort</text><line style="stroke:#181818;stroke-width:0.5;" x1="648.47" x2="1027.4534" y1="271" y2="271"/><g data-visibility-modifier="PRIVATE_FIELD"><rect fill="none" height="6" style="stroke:#C82930;stroke-width:1;" width="6" x="655.47" y="281.6484"/></g><text fill="#000000" font-family="sans-serif" font-size="14" lengthAdjust="spacing" textLength="221.0947" x="667.47" y="287.9951">map: Map&lt;Location, Location&gt;</text><line style="stroke:#181818;stroke-width:0.5;" x1="648.47" x2="1027.4534" y1="295.2969" y2="295.2969"/><g data-visibility-modifier="PUBLIC_METHOD"><ellipse cx="658.47" cy="308.9453" fill="#84BE84" rx="3" ry="3" style="stroke:#038048;stroke-width:1;"/></g><text fill="#000000" font-family="sans-serif" font-size="14" lengthAdjust="spacing" textLength="354.9834" x="667.47" y="312.292">SettlementToPort(map: Map&lt;Location, Location&gt;)</text></g><!--class SettlementToSettlements--><g class="entity" data-qualified-name="SettlementToSettlements" data-source-line="35" id="ent0007"><rect fill="#F1F1F1" height="80.5938" rx="2.5" ry="2.5" style="stroke:#181818;stroke-width:0.5;" width="484.0693" x="595.92" y="355"/><ellipse cx="738.4044" cy="371" fill="#ADD1B2" rx="11" ry="11" style="stroke:#181818;stroke-width:1;"/><path d="M741.3731,376.6406 Q740.795,376.9375 740.1544,377.0781 Q739.5138,377.2344 738.8106,377.2344 Q736.3106,377.2344 734.9825,375.5938 Q733.67,373.9375 733.67,370.8125 Q733.67,367.6875 734.9825,366.0313 Q736.3106,364.375 738.8106,364.375 Q739.5138,364.375 740.1544,364.5313 Q740.8106,364.6875 741.3731,364.9844 L741.3731,367.7031 Q740.7481,367.125 740.1544,366.8594 Q739.5606,366.5781 738.9356,366.5781 Q737.5919,366.5781 736.9044,367.6563 Q736.2169,368.7188 736.2169,370.8125 Q736.2169,372.9063 736.9044,373.9844 Q737.5919,375.0469 738.9356,375.0469 Q739.5606,375.0469 740.1544,374.7813 Q740.7481,374.5 741.3731,373.9219 L741.3731,376.6406 Z " fill="#000000"/><g data-visibility-modifier="PUBLIC_METHOD"><ellipse cx="763.9044" cy="370.5" fill="#84BE84" rx="3" ry="3" style="stroke:#038048;stroke-width:1;"/></g><text fill="#000000" font-family="sans-serif" font-size="14" lengthAdjust="spacing" textLength="179.6006" x="769.9044" y="375.8467">SettlementToSettlements</text><line style="stroke:#181818;stroke-width:0.5;" x1="596.92" x2="1078.9893" y1="387" y2="387"/><g data-visibility-modifier="PRIVATE_FIELD"><rect fill="none" height="6" style="stroke:#C82930;stroke-width:1;" width="6" x="603.92" y="397.6484"/></g><text fill="#000000" font-family="sans-serif" font-size="14" lengthAdjust="spacing" textLength="267.5449" x="615.92" y="403.9951">map: Map&lt;Location, Set&lt;Location&gt;&gt;</text><line style="stroke:#181818;stroke-width:0.5;" x1="596.92" x2="1078.9893" y1="411.2969" y2="411.2969"/><g data-visibility-modifier="PUBLIC_METHOD"><ellipse cx="606.92" cy="424.9453" fill="#84BE84" rx="3" ry="3" style="stroke:#038048;stroke-width:1;"/></g><text fill="#000000" font-family="sans-serif" font-size="14" lengthAdjust="spacing" textLength="458.0693" x="615.92" y="428.292">SettlementToSettlements(map: Map&lt;Location, Set&lt;Location&gt;&gt;)</text></g><!--class TileToTiles--><g class="entity" data-qualified-name="TileToTiles" data-source-line="40" id="ent0008"><rect fill="#F1F1F1" height="80.5938" rx="2.5" ry="2.5" style="stroke:#181818;stroke-width:0.5;" width="378.7686" x="648.57" y="471"/><ellipse cx="791.0544" cy="487" fill="#ADD1B2" rx="11" ry="11" style="stroke:#181818;stroke-width:1;"/><path d="M794.0231,492.6406 Q793.445,492.9375 792.8044,493.0781 Q792.1638,493.2344 791.4606,493.2344 Q788.9606,493.2344 787.6325,491.5938 Q786.32,489.9375 786.32,486.8125 Q786.32,483.6875 787.6325,482.0313 Q788.9606,480.375 791.4606,480.375 Q792.1638,480.375 792.8044,480.5313 Q793.4606,480.6875 794.0231,480.9844 L794.0231,483.7031 Q793.3981,483.125 792.8044,482.8594 Q792.2106,482.5781 791.5856,482.5781 Q790.2419,482.5781 789.5544,483.6563 Q788.8669,484.7188 788.8669,486.8125 Q788.8669,488.9063 789.5544,489.9844 Q790.2419,491.0469 791.5856,491.0469 Q792.2106,491.0469 792.8044,490.7813 Q793.3981,490.5 794.0231,489.9219 L794.0231,492.6406 Z " fill="#000000"/><g data-visibility-modifier="PUBLIC_METHOD"><ellipse cx="816.5544" cy="486.5" fill="#84BE84" rx="3" ry="3" style="stroke:#038048;stroke-width:1;"/></g><text fill="#000000" font-family="sans-serif" font-size="14" lengthAdjust="spacing" textLength="74.2998" x="822.5544" y="491.8467">TileToTiles</text><line style="stroke:#181818;stroke-width:0.5;" x1="649.57" x2="1026.3386" y1="503" y2="503"/><g data-visibility-modifier="PRIVATE_FIELD"><rect fill="none" height="6" style="stroke:#C82930;stroke-width:1;" width="6" x="656.57" y="513.6484"/></g><text fill="#000000" font-family="sans-serif" font-size="14" lengthAdjust="spacing" textLength="267.5449" x="668.57" y="519.9951">map: Map&lt;Location, Set&lt;Location&gt;&gt;</text><line style="stroke:#181818;stroke-width:0.5;" x1="649.57" x2="1026.3386" y1="527.2969" y2="527.2969"/><g data-visibility-modifier="PUBLIC_METHOD"><ellipse cx="659.57" cy="540.9453" fill="#84BE84" rx="3" ry="3" style="stroke:#038048;stroke-width:1;"/></g><text fill="#000000" font-family="sans-serif" font-size="14" lengthAdjust="spacing" textLength="352.7686" x="668.57" y="544.292">TileToTiles(map: Map&lt;Location, Set&lt;Location&gt;&gt;)</text></g><!--class ParamName--><g class="entity" data-qualified-name="ParamName" data-source-line="45" id="ent0009"><rect fill="#F1F1F1" height="48" rx="2.5" ry="2.5" style="stroke:#181818;stroke-width:0.5;" width="129.2969" x="207.81" y="131.29"/><ellipse cx="222.81" cy="147.29" fill="#EB937F" rx="11" ry="11" style="stroke:#181818;stroke-width:1;"/><path d="M226.9194,153.29 L219.2006,153.29 L219.2006,140.8994 L226.9194,140.8994 L226.9194,143.0556 L221.6538,143.0556 L221.6538,145.7275 L226.4194,145.7275 L226.4194,147.8838 L221.6538,147.8838 L221.6538,151.1338 L226.9194,151.1338 L226.9194,153.29 Z " fill="#000000"/><g data-visibility-modifier="PUBLIC_METHOD"><ellipse cx="241.81" cy="146.79" fill="#84BE84" rx="3" ry="3" style="stroke:#038048;stroke-width:1;"/></g><text fill="#000000" font-family="sans-serif" font-size="14" lengthAdjust="spacing" textLength="86.2969" x="247.81" y="152.1367">ParamName</text><line style="stroke:#181818;stroke-width:0.5;" x1="208.81" x2="336.1069" y1="163.29" y2="163.29"/><line style="stroke:#181818;stroke-width:0.5;" x1="208.81" x2="336.1069" y1="171.29" y2="171.29"/></g><!--reverse link AdjacencyInitializer to Adjacency--><g class="link" data-entity-1="ent0003" data-entity-2="ent0002" data-link-type="dependency" data-source-line="48" id="lnk11"><path codeLine="48" d="M272.46,350.32 C272.46,361.87 272.46,367.42 272.46,378.97" fill="none" id="AdjacencyInitializer-backto-Adjacency" style="stroke:#181818;stroke-width:1;stroke-dasharray:7,7;"/><polygon fill="#181818" points="272.46,344.32,268.46,353.32,272.46,349.32,276.46,353.32,272.46,344.32" style="stroke:#181818;stroke-width:1;"/></g><!--reverse link ParamName to AdjacencyInitializer--><g class="link" data-entity-1="ent0009" data-entity-2="ent0003" data-link-type="dependency" data-source-line="49" id="lnk13"><path codeLine="49" d="M272.46,185.76 C272.46,197.3 272.46,202.85 272.46,214.39" fill="none" id="ParamName-backto-AdjacencyInitializer" style="stroke:#181818;stroke-width:1;"/><polygon fill="#181818" points="272.46,179.76,268.46,188.76,272.46,184.76,276.46,188.76,272.46,179.76" style="stroke:#181818;stroke-width:1;"/><text fill="#000000" font-family="sans-serif" font-size="13" lengthAdjust="spacing" textLength="6.5" x="265.8244" y="199.2353">*</text></g><!--reverse link AdjacencyInitializer to RoadToRoads--><g class="link" data-entity-1="ent0003" data-entity-2="ent0004" data-link-type="extension" data-source-line="50" id="lnk15"><path codeLine="50" d="M526.193,204.9697 C534.963,199.7697 527.93,203.34 535.92,197.29 C574.85,167.83 556.04,133.44 595.92,105.29 C608.76,96.24 622.84,88.58 637.54,82.12" fill="none" id="AdjacencyInitializer-backto-RoadToRoads" style="stroke:#181818;stroke-width:1;"/><polygon fill="none" points="510.71,214.15,529.2531,210.1307,523.1328,199.8087,510.71,214.15" style="stroke:#181818;stroke-width:1;"/></g><!--reverse link AdjacencyInitializer to RoadToSettlements--><g class="link" data-entity-1="ent0003" data-entity-2="ent0005" data-link-type="extension" data-source-line="51" id="lnk17"><path codeLine="51" d="M553.87,221.569 C588.44,214.449 605.77,210.89 639.01,204.04" fill="none" id="AdjacencyInitializer-backto-RoadToSettlements" style="stroke:#181818;stroke-width:1;"/><polygon fill="none" points="536.24,225.2,555.0803,227.4456,552.6596,215.6923,536.24,225.2" style="stroke:#181818;stroke-width:1;"/></g><!--reverse link AdjacencyInitializer to SettlementToPort--><g class="link" data-entity-1="ent0003" data-entity-2="ent0006" data-link-type="extension" data-source-line="52" id="lnk19"><path codeLine="52" d="M554.24,279.29 C591.68,279.29 611.57,279.29 647.25,279.29" fill="none" id="AdjacencyInitializer-backto-SettlementToPort" style="stroke:#181818;stroke-width:1;"/><polygon fill="none" points="536.24,279.29,554.24,285.29,554.24,273.29,536.24,279.29" style="stroke:#181818;stroke-width:1;"/></g><!--reverse link AdjacencyInitializer to SettlementToSettlements--><g class="link" data-entity-1="ent0003" data-entity-2="ent0007" data-link-type="extension" data-source-line="53" id="lnk21"><path codeLine="53" d="M553.871,337.0162 C588.441,344.1262 605.77,347.7 639.01,354.54" fill="none" id="AdjacencyInitializer-backto-SettlementToSettlements" style="stroke:#181818;stroke-width:1;"/><polygon fill="none" points="536.24,333.39,552.6622,342.8931,555.0797,331.1392,536.24,333.39" style="stroke:#181818;stroke-width:1;"/></g><!--reverse link AdjacencyInitializer to TileToTiles--><g class="link" data-entity-1="ent0003" data-entity-2="ent0008" data-link-type="extension" data-source-line="54" id="lnk23"><path codeLine="54" d="M524.6366,353.5793 C533.9866,359.0493 527.44,355.88 535.92,362.29 C574.58,391.5 556.27,425.46 595.92,453.29 C611.86,464.48 629.7,473.53 648.26,480.84" fill="none" id="AdjacencyInitializer-backto-TileToTiles" style="stroke:#181818;stroke-width:1;"/><polygon fill="none" points="509.1,344.49,521.6068,358.7582,527.6663,348.4004,509.1,344.49" style="stroke:#181818;stroke-width:1;"/></g><?plantuml-src dLJ1Re9043sxNx7nX1Ny06D86azDR6EKMzF355RT1bYoZ4rQQx-z0utB5WIXbmM6z-RDpBxTMEoGe-9QxW_88wb5Y5AbZ4t36FAStqTl48eq_E0dDlAqWYXG6rhpEN-4RB5I8HHubsy5cY_VDrWAOomIaU9jHcwmmtWeOn6eWDPX6ckbiIHKU8DbewbftPcmCmq4NdFK42AlJUOXbIWXbfz2bqFQKI5Fa8WvtwAMwPv22MHhq90KOQfn9NDScC0VBIkPKq_aybeUy_xyCc6ZRscuLkbp_gvaH7zFb_hF4D76KDiEw3qzVcTcShbyUO029xH_OP-D7pQL0yfcamk_VUPJY-FSn4yQOfOL1afQp672svfBsdHjkzGvJXU-JUm_lRRmXtKSL6Uejx35wIicqcDIsPQKA5XTCREORgEPV_LeiQldpIiOdZ--6rTPcUrHxvXvNoqPc_RgGZSyqHVSLy3UWWxS3m00?></g></svg>
