<svg xmlns="http://www.w3.org/2000/svg" xmlns:xlink="http://www.w3.org/1999/xlink" contentStyleType="text/css" height="566px" preserveAspectRatio="none" style="width:628px;height:566px;background:transparent;" version="1.1" viewBox="0 0 628 566" width="628px" zoomAndPan="magnify"><defs/><g><!--cluster JFtp--><g id="cluster_JFtp"><path d="M243.5,107.5 L274.0518,107.5 A3.75,3.75 0 0 1 276.5518,110 L283.5518,132.1211 L495.5,132.1211 A2.5,2.5 0 0 1 498,134.6211 L498,207 A2.5,2.5 0 0 1 495.5,209.5 L243.5,209.5 A2.5,2.5 0 0 1 241,207 L241,110 A2.5,2.5 0 0 1 243.5,107.5 " fill="none" style="stroke:#000000;stroke-width:1.5;"/><line style="stroke:#000000;stroke-width:1.5;" x1="241" x2="283.5518" y1="132.1211" y2="132.1211"/><text fill="#000000" font-family="sans-serif" font-size="14" font-weight="bold" lengthAdjust="spacing" textLength="29.5518" x="245" y="124.6074">JFtp</text></g><g id="cluster_##6"><polygon fill="none" points="206,247.5,216,237.5,611,237.5,611,539.5,601,549.5,206,549.5,206,247.5" style="stroke:#181818;stroke-width:1.0;"/><line style="stroke:#181818;stroke-width:1.0;" x1="601" x2="611" y1="247.5" y2="237.5"/><line style="stroke:#181818;stroke-width:1.0;" x1="206" x2="601" y1="247.5" y2="247.5"/><line style="stroke:#181818;stroke-width:1.0;" x1="601" x2="601" y1="247.5" y2="549.5"/></g><!--entity JFtp GUI--><g id="elem_JFtp GUI"><rect fill="#F1F1F1" height="48.6211" rx="2.5" ry="2.5" style="stroke:#181818;stroke-width:0.5;" width="96.0068" x="386" y="144.5"/><rect fill="#F1F1F1" height="10" style="stroke:#181818;stroke-width:0.5;" width="15" x="462.0068" y="149.5"/><rect fill="#F1F1F1" height="2" style="stroke:#181818;stroke-width:0.5;" width="4" x="460.0068" y="151.5"/><rect fill="#F1F1F1" height="2" style="stroke:#181818;stroke-width:0.5;" width="4" x="460.0068" y="155.5"/><text fill="#000000" font-family="sans-serif" font-size="14" lengthAdjust="spacing" textLength="56.0068" x="401" y="179.6074">JFtp GUI</text></g><!--entity JFtp CLI--><g id="elem_JFtp CLI"><rect fill="#F1F1F1" height="48.6211" rx="2.5" ry="2.5" style="stroke:#181818;stroke-width:0.5;" width="92.9033" x="257.5" y="144.5"/><rect fill="#F1F1F1" height="10" style="stroke:#181818;stroke-width:0.5;" width="15" x="330.4033" y="149.5"/><rect fill="#F1F1F1" height="2" style="stroke:#181818;stroke-width:0.5;" width="4" x="328.4033" y="151.5"/><rect fill="#F1F1F1" height="2" style="stroke:#181818;stroke-width:0.5;" width="4" x="328.4033" y="155.5"/><text fill="#000000" font-family="sans-serif" font-size="14" lengthAdjust="spacing" textLength="52.9033" x="272.5" y="179.6074">JFtp CLI</text></g><!--entity FTP--><g id="elem_FTP"><ellipse cx="304" cy="284.5" fill="#F1F1F1" rx="8" ry="8" style="stroke:#181818;stroke-width:0.5;"/><text fill="#000000" font-family="sans-serif" font-size="14" lengthAdjust="spacing" textLength="26.4414" x="290.7793" y="316.6074">FTP</text></g><!--entity SFTP--><g id="elem_SFTP"><ellipse cx="471" cy="284.5" fill="#F1F1F1" rx="8" ry="8" style="stroke:#181818;stroke-width:0.5;"/><text fill="#000000" font-family="sans-serif" font-size="14" lengthAdjust="spacing" textLength="35.7793" x="453.1104" y="316.6074">SFTP</text></g><!--entity Remote FTP Server--><g id="elem_Remote FTP Server"><rect fill="#F1F1F1" height="48.6211" rx="2.5" ry="2.5" style="stroke:#181818;stroke-width:0.5;" width="164.4756" x="222" y="375.5"/><rect fill="#F1F1F1" height="10" style="stroke:#181818;stroke-width:0.5;" width="15" x="366.4756" y="380.5"/><rect fill="#F1F1F1" height="2" style="stroke:#181818;stroke-width:0.5;" width="4" x="364.4756" y="382.5"/><rect fill="#F1F1F1" height="2" style="stroke:#181818;stroke-width:0.5;" width="4" x="364.4756" y="386.5"/><text fill="#000000" font-family="sans-serif" font-size="14" lengthAdjust="spacing" textLength="124.4756" x="237" y="410.6074">Remote FTP Server</text></g><!--entity Remote SFTP Server--><g id="elem_Remote SFTP Server"><rect fill="#F1F1F1" height="48.6211" rx="2.5" ry="2.5" style="stroke:#181818;stroke-width:0.5;" width="173.8135" x="421" y="375.5"/><rect fill="#F1F1F1" height="10" style="stroke:#181818;stroke-width:0.5;" width="15" x="574.8135" y="380.5"/><rect fill="#F1F1F1" height="2" style="stroke:#181818;stroke-width:0.5;" width="4" x="572.8135" y="382.5"/><rect fill="#F1F1F1" height="2" style="stroke:#181818;stroke-width:0.5;" width="4" x="572.8135" y="386.5"/><text fill="#000000" font-family="sans-serif" font-size="14" lengthAdjust="spacing" textLength="133.8135" x="436" y="410.6074">Remote SFTP Server</text></g><!--entity Remote File System--><g id="elem_Remote File System"><rect fill="#F1F1F1" height="48.6211" rx="2.5" ry="2.5" style="stroke:#181818;stroke-width:0.5;" width="166.0342" x="323" y="484.5"/><rect fill="#F1F1F1" height="10" style="stroke:#181818;stroke-width:0.5;" width="15" x="469.0342" y="489.5"/><rect fill="#F1F1F1" height="2" style="stroke:#181818;stroke-width:0.5;" width="4" x="467.0342" y="491.5"/><rect fill="#F1F1F1" height="2" style="stroke:#181818;stroke-width:0.5;" width="4" x="467.0342" y="495.5"/><text fill="#000000" font-family="sans-serif" font-size="14" lengthAdjust="spacing" textLength="126.0342" x="338" y="519.6074">Remote File System</text></g><!--entity User--><g id="elem_User"><ellipse cx="368.7793" cy="14" fill="#F1F1F1" rx="8" ry="8" style="stroke:#181818;stroke-width:0.5;"/><path d="M368.7793,22 L368.7793,49 M355.7793,30 L381.7793,30 M368.7793,49 L355.7793,64 M368.7793,49 L381.7793,64 " fill="none" style="stroke:#181818;stroke-width:0.5;"/><text fill="#000000" font-family="sans-serif" font-size="14" lengthAdjust="spacing" textLength="29.5586" x="354" y="80.6074">User</text></g><g id="elem_GMN17"><path d="M6,271 L6,298.291 A0,0 0 0 0 6,298.291 L189.5698,298.291 A0,0 0 0 0 189.5698,298.291 L189.5698,289 L294.66,284.5 L189.5698,281 L189.5698,281 L179.5698,271 L6,271 A0,0 0 0 0 6,271 " fill="#FEFFDD" style="stroke:#181818;stroke-width:0.5;"/><path d="M179.5698,271 L179.5698,281 L189.5698,281 L179.5698,271 " fill="#FEFFDD" style="stroke:#181818;stroke-width:0.5;"/><text fill="#000000" font-family="sans-serif" font-size="13" lengthAdjust="spacing" textLength="162.5698" x="12" y="290.0283">FTP is not a secure protocol</text></g><!--link FTP to Remote FTP Server--><g id="link_FTP_Remote FTP Server"><path d="M304,293.66 C304,310.54 304,349.82 304,375.35 " fill="none" id="FTP-Remote FTP Server" style="stroke:#181818;stroke-width:1.0;"/></g><!--link SFTP to Remote SFTP Server--><g id="link_SFTP_Remote SFTP Server"><path d="M473.66,293.66 C479.16,310.54 491.97,349.82 500.29,375.35 " fill="none" id="SFTP-Remote SFTP Server" style="stroke:#181818;stroke-width:1.0;"/></g><!--link Remote FTP Server to Remote File System--><g id="link_Remote FTP Server_Remote File System"><path d="M326.64,424.75 C343.54,442.48 362.4003,462.2569 379.2903,479.9769 " fill="none" id="Remote FTP Server-to-Remote File System" style="stroke:#181818;stroke-width:1.0;stroke-dasharray:7.0,7.0;"/><polygon fill="#181818" points="383.43,484.32,380.1159,475.0455,379.9802,480.7007,374.325,480.5651,383.43,484.32" style="stroke:#181818;stroke-width:1.0;"/></g><!--link Remote SFTP Server to Remote File System--><g id="link_Remote SFTP Server_Remote File System"><path d="M485.36,424.75 C468.46,442.48 449.5997,462.2569 432.7097,479.9769 " fill="none" id="Remote SFTP Server-to-Remote File System" style="stroke:#181818;stroke-width:1.0;stroke-dasharray:7.0,7.0;"/><polygon fill="#181818" points="428.57,484.32,437.675,480.5651,432.0198,480.7007,431.8841,475.0455,428.57,484.32" style="stroke:#181818;stroke-width:1.0;"/></g><!--link User to JFtp GUI--><g id="link_User_JFtp GUI"><path d="M384.08,74.3 C395.4,95.55 407.9191,119.0445 418.5891,139.0745 " fill="none" id="User-to-JFtp GUI" style="stroke:#181818;stroke-width:1.0;stroke-dasharray:7.0,7.0;"/><polygon fill="#181818" points="421.41,144.37,420.709,134.5461,419.0592,139.9571,413.6483,138.3074,421.41,144.37" style="stroke:#181818;stroke-width:1.0;"/></g><!--link User to JFtp CLI--><g id="link_User_JFtp CLI"><path d="M353.92,74.3 C342.6,95.55 330.0809,119.0445 319.4109,139.0745 " fill="none" id="User-to-JFtp CLI" style="stroke:#181818;stroke-width:1.0;stroke-dasharray:7.0,7.0;"/><polygon fill="#181818" points="316.59,144.37,324.3517,138.3074,318.9408,139.9571,317.291,134.5461,316.59,144.37" style="stroke:#181818;stroke-width:1.0;"/></g><!--link JFtp GUI to FTP--><g id="link_JFtp GUI_FTP"><path d="M407.06,193.52 C377.76,219.1 337.051,254.6553 317.751,271.4953 " fill="none" id="JFtp GUI-to-FTP" style="stroke:#181818;stroke-width:1.0;"/><polygon fill="#181818" points="313.23,275.44,322.6413,272.5369,316.9975,272.1527,317.3816,266.5089,313.23,275.44" style="stroke:#181818;stroke-width:1.0;"/></g><!--link JFtp GUI to SFTP--><g id="link_JFtp GUI_SFTP"><path d="M441.67,193.52 C450.01,219.1 461.0203,252.8955 466.5103,269.7355 " fill="none" id="JFtp GUI-to-SFTP" style="stroke:#181818;stroke-width:1.0;"/><polygon fill="#181818" points="468.37,275.44,469.3834,265.6434,466.8202,270.6862,461.7774,268.1231,468.37,275.44" style="stroke:#181818;stroke-width:1.0;"/></g><!--link JFtp CLI to FTP--><g id="link_JFtp CLI_FTP"><path d="M304,193.52 C304,219.1 304,252.6 304,269.44 " fill="none" id="JFtp CLI-to-FTP" style="stroke:#181818;stroke-width:1.0;"/><polygon fill="#181818" points="304,275.44,308,266.44,304,270.44,300,266.44,304,275.44" style="stroke:#181818;stroke-width:1.0;"/></g><!--SRC=[TL112i8m4Bpd5NlKG_i03xq85SM367igFOIubMBhbYGA8lxT96s95fFJxCpk31aX3IaeD2h6UY6lueAmoqqFBmRsbHvlYctrDQxtTdmpTgCpZdkBPNuwZ8XFi3nYHmR1pi1HFL1LFpoF2NdJMlMf3NQ3u1QJ96h8PthSEF2Gfbayy9zJ_C9tOSaMQmDKkvYLpseqM044Q9HtXT0hCYIfPSmrFXY6XcUShpd8zeEPCvrJF73kObhx0000]--></g></svg>
