<?plantuml 1.2026.2beta3?><svg xmlns="http://www.w3.org/2000/svg" xmlns:xlink="http://www.w3.org/1999/xlink" contentStyleType="text/css" data-diagram-type="CLASS" height="362px" preserveAspectRatio="none" style="width:538px;height:362px;" version="1.1" viewBox="0 0 538 362" width="538px" zoomAndPan="magnify"><defs/><g><!--cluster datasource--><g class="cluster" data-qualified-name="datasource" data-source-line="4" id="ent0003"><path d="M8.5,83.59 L97.7246,83.59 A3.75,3.75 0 0 1 100.2246,86.09 L107.2246,105.8869 L528.5,105.8869 A2.5,2.5 0 0 1 531,108.3869 L531,353.28 A2.5,2.5 0 0 1 528.5,355.78 L8.5,355.78 A2.5,2.5 0 0 1 6,353.28 L6,86.09 A2.5,2.5 0 0 1 8.5,83.59" fill="none" style="stroke:#000000;stroke-width:1.5;"/><line style="stroke:#000000;stroke-width:1.5;" x1="6" x2="107.2246" y1="105.8869" y2="105.8869"/><text fill="#000000" font-family="sans-serif" font-size="14" font-weight="bold" lengthAdjust="spacing" textLength="88.2246" x="10" y="98.5851">datasource</text></g><path d="M187.57,6 L232.4225,6 A3.75,3.75 0 0 1 234.9225,8.5 L241.9225,28.2969 L246.4225,28.2969 A2.5,2.5 0 0 1 248.9225,30.7969 L248.9225,56.0938 A2.5,2.5 0 0 1 246.4225,58.5938 L187.57,58.5938 A2.5,2.5 0 0 1 185.07,56.0938 L185.07,8.5 A2.5,2.5 0 0 1 187.57,6" fill="#F1F1F1" style="stroke:#181818;stroke-width:0.5;"/><line style="stroke:#181818;stroke-width:0.5;" x1="185.07" x2="241.9225" y1="28.2969" y2="28.2969"/><text fill="#000000" font-family="sans-serif" font-size="14" font-weight="bold" lengthAdjust="spacing" textLength="43.8525" x="189.07" y="20.9951">catan</text><!--class Loader--><g class="entity" data-qualified-name="datasource.Loader" data-source-line="5" id="ent0004"><rect fill="#F1F1F1" height="96.8906" rx="2.5" ry="2.5" style="stroke:#181818;stroke-width:0.5;" width="174.8457" x="269.58" y="118.59"/><ellipse cx="323.1528" cy="134.59" fill="#B4A7E5" rx="11" ry="11" style="stroke:#181818;stroke-width:1;"/><path d="M319.0746,130.3556 L319.0746,128.1994 L326.4653,128.1994 L326.4653,130.3556 L323.9965,130.3556 L323.9965,138.4337 L326.4653,138.4337 L326.4653,140.59 L319.0746,140.59 L319.0746,138.4337 L321.5434,138.4337 L321.5434,130.3556 L319.0746,130.3556 Z " fill="#000000"/><g data-visibility-modifier="PUBLIC_METHOD"><ellipse cx="348.6528" cy="134.09" fill="#84BE84" rx="3" ry="3" style="stroke:#038048;stroke-width:1;"/></g><text fill="#000000" font-family="sans-serif" font-size="14" font-style="italic" lengthAdjust="spacing" textLength="48.2002" x="354.6528" y="139.4367">Loader</text><line style="stroke:#181818;stroke-width:0.5;" x1="270.58" x2="443.4257" y1="150.59" y2="150.59"/><line style="stroke:#181818;stroke-width:0.5;" x1="270.58" x2="443.4257" y1="158.59" y2="158.59"/><text fill="#000000" font-family="sans-serif" font-size="14" font-style="italic" lengthAdjust="spacing" textLength="162.8457" x="275.58" y="175.5851">hasNextLine(): boolean</text><text fill="#000000" font-family="sans-serif" font-size="14" font-style="italic" lengthAdjust="spacing" textLength="122.3086" x="275.58" y="191.882">nextLine(): String</text><text fill="#000000" font-family="sans-serif" font-size="14" font-style="italic" lengthAdjust="spacing" textLength="85.7773" x="275.58" y="208.1789">close(): void</text></g><!--class CatanFileReader--><g class="entity" data-qualified-name="datasource.CatanFileReader" data-source-line="11" id="ent0005"><rect fill="#F1F1F1" height="64.2969" rx="2.5" ry="2.5" style="stroke:#181818;stroke-width:0.5;" width="316.2676" x="198.87" y="275.48"/><ellipse cx="289.2953" cy="291.48" fill="#ADD1B2" rx="11" ry="11" style="stroke:#181818;stroke-width:1;"/><path d="M292.264,297.1206 Q291.6859,297.4175 291.0453,297.5581 Q290.4047,297.7144 289.7015,297.7144 Q287.2015,297.7144 285.8734,296.0737 Q284.5609,294.4175 284.5609,291.2925 Q284.5609,288.1675 285.8734,286.5112 Q287.2015,284.855 289.7015,284.855 Q290.4047,284.855 291.0453,285.0112 Q291.7015,285.1675 292.264,285.4644 L292.264,288.1831 Q291.639,287.605 291.0453,287.3394 Q290.4515,287.0581 289.8265,287.0581 Q288.4828,287.0581 287.7953,288.1362 Q287.1078,289.1987 287.1078,291.2925 Q287.1078,293.3862 287.7953,294.4644 Q288.4828,295.5269 289.8265,295.5269 Q290.4515,295.5269 291.0453,295.2612 Q291.639,294.98 292.264,294.4019 L292.264,297.1206 Z " fill="#000000"/><g data-visibility-modifier="PUBLIC_METHOD"><ellipse cx="314.7953" cy="290.98" fill="#84BE84" rx="3" ry="3" style="stroke:#038048;stroke-width:1;"/></g><text fill="#000000" font-family="sans-serif" font-size="14" lengthAdjust="spacing" textLength="115.917" x="320.7953" y="296.3267">CatanFileReader</text><line style="stroke:#181818;stroke-width:0.5;" x1="199.87" x2="514.1376" y1="307.48" y2="307.48"/><line style="stroke:#181818;stroke-width:0.5;" x1="199.87" x2="514.1376" y1="315.48" y2="315.48"/><g data-visibility-modifier="PUBLIC_METHOD"><ellipse cx="209.87" cy="329.1284" fill="#84BE84" rx="3" ry="3" style="stroke:#038048;stroke-width:1;"/></g><text fill="#000000" font-family="sans-serif" font-size="14" lengthAdjust="spacing" textLength="290.2676" x="218.87" y="332.4751">CatanFileReader(scanner: CatanScanner)</text></g><!--class CatanScanner--><g class="entity" data-qualified-name="datasource.CatanScanner" data-source-line="15" id="ent0006"><rect fill="#F1F1F1" height="48" rx="2.5" ry="2.5" style="stroke:#181818;stroke-width:0.5;" width="141.5742" x="22.21" y="283.63"/><ellipse cx="37.21" cy="299.63" fill="#ADD1B2" rx="11" ry="11" style="stroke:#181818;stroke-width:1;"/><path d="M40.1788,305.2706 Q39.6006,305.5675 38.96,305.7081 Q38.3194,305.8644 37.6163,305.8644 Q35.1163,305.8644 33.7881,304.2238 Q32.4756,302.5675 32.4756,299.4425 Q32.4756,296.3175 33.7881,294.6613 Q35.1163,293.005 37.6163,293.005 Q38.3194,293.005 38.96,293.1613 Q39.6163,293.3175 40.1788,293.6144 L40.1788,296.3331 Q39.5538,295.755 38.96,295.4894 Q38.3663,295.2081 37.7413,295.2081 Q36.3975,295.2081 35.71,296.2863 Q35.0225,297.3488 35.0225,299.4425 Q35.0225,301.5363 35.71,302.6144 Q36.3975,303.6769 37.7413,303.6769 Q38.3663,303.6769 38.96,303.4113 Q39.5538,303.13 40.1788,302.5519 L40.1788,305.2706 Z " fill="#000000"/><g data-visibility-modifier="PUBLIC_METHOD"><ellipse cx="56.21" cy="299.13" fill="#84BE84" rx="3" ry="3" style="stroke:#038048;stroke-width:1;"/></g><text fill="#000000" font-family="sans-serif" font-size="14" lengthAdjust="spacing" textLength="98.5742" x="62.21" y="304.4767">CatanScanner</text><line style="stroke:#181818;stroke-width:0.5;" x1="23.21" x2="162.7842" y1="315.63" y2="315.63"/><line style="stroke:#181818;stroke-width:0.5;" x1="23.21" x2="162.7842" y1="323.63" y2="323.63"/></g><!--link catan to Loader--><g class="link" data-entity-1="ent0002" data-entity-2="ent0004" data-link-type="dependency" data-source-line="19" id="lnk7"><path codeLine="19" d="M243.99,58.89 C261.71,75.69 281.0756,94.0522 302.2156,114.0922" fill="none" id="catan-to-Loader" style="stroke:#181818;stroke-width:1;"/><polygon fill="#181818" points="306.57,118.22,302.7903,109.1253,302.9413,114.7801,297.2865,114.9312,306.57,118.22" style="stroke:#181818;stroke-width:1;"/></g><!--link catan to CatanFileReader--><g class="link" data-entity-1="ent0002" data-entity-2="ent0005" data-link-type="dependency" data-source-line="20" id="lnk8"><path codeLine="20" d="M216.77,58.96 C217.54,95.98 223.13,165.39 252,215.48 C265.56,239.01 282.7149,255.814 303.0249,271.354" fill="none" id="catan-to-CatanFileReader" style="stroke:#181818;stroke-width:1;stroke-dasharray:7,7;"/><polygon fill="#181818" points="307.79,275,303.0729,266.3542,303.819,271.9617,298.2116,272.7078,307.79,275" style="stroke:#181818;stroke-width:1;"/></g><!--link catan to CatanScanner--><g class="link" data-entity-1="ent0002" data-entity-2="ent0006" data-link-type="dependency" data-source-line="21" id="lnk9"><path codeLine="21" d="M200.42,58.89 C197.15,64.32 193.84,70.08 191,75.59 C153.05,149.17 119.5508,235.1798 103.7208,277.5298" fill="none" id="catan-to-CatanScanner" style="stroke:#181818;stroke-width:1;stroke-dasharray:7,7;"/><polygon fill="#181818" points="101.62,283.15,108.518,276.1202,103.3706,278.4665,101.0244,273.3192,101.62,283.15" style="stroke:#181818;stroke-width:1;"/></g><!--link CatanFileReader to CatanScanner--><g class="link" data-entity-1="ent0005" data-entity-2="ent0006" data-link-type="dependency" data-source-line="22" id="lnk10"><path codeLine="22" d="M198.43,307.63 C187.01,307.63 181.58,307.63 170.16,307.63" fill="none" id="CatanFileReader-to-CatanScanner" style="stroke:#181818;stroke-width:1;"/><polygon fill="#181818" points="164.16,307.63,173.16,311.63,169.16,307.63,173.16,303.63,164.16,307.63" style="stroke:#181818;stroke-width:1;"/></g><!--reverse link Loader to CatanFileReader--><g class="link" data-entity-1="ent0004" data-entity-2="ent0005" data-link-type="extension" data-source-line="23" id="lnk12"><path codeLine="23" d="M357,233.73 C357,253.47 357,257.79 357,275.38" fill="none" id="Loader-backto-CatanFileReader" style="stroke:#181818;stroke-width:1;stroke-dasharray:7,7;"/><polygon fill="none" points="357,215.73,351,233.73,363,233.73,357,215.73" style="stroke:#181818;stroke-width:1;"/></g><?plantuml-src XOz13e8m54JNz1HTGaWv00is9gw82pd1ftoXiMb9Mum9SdUBL2DruVA_cSpC7u5VeKVAmO6YCra86GFgFB9wCXmzJtAX79eB-AlMqA5POJ93Qvq1xfO1x0dlhXOAqwoahTOIGUqiwajld16gtybSQllIRbfq9F5BafnBi9OUrd578V6Cd-OyWgdbe1IQSdCtsvNzvWHb3LdMTxVF6Ql2Nm4KHHNtnaf88l4yPaG_EFR7LKnZyNYNFW40?></g></svg>
