<?plantuml 1.2026.2beta3?><svg xmlns="http://www.w3.org/2000/svg" xmlns:xlink="http://www.w3.org/1999/xlink" contentStyleType="text/css" data-diagram-type="CLASS" height="254px" preserveAspectRatio="none" style="width:494px;height:254px;" version="1.1" viewBox="0 0 494 254" width="494px" zoomAndPan="magnify"><defs/><g><!--cluster datasource--><g class="cluster" data-qualified-name="datasource" data-source-line="4" id="ent0003"><path d="M8.5,83.59 L97.7246,83.59 A3.75,3.75 0 0 1 100.2246,86.09 L107.2246,105.8869 L484.5,105.8869 A2.5,2.5 0 0 1 487,108.3869 L487,245.28 A2.5,2.5 0 0 1 484.5,247.78 L8.5,247.78 A2.5,2.5 0 0 1 6,245.28 L6,86.09 A2.5,2.5 0 0 1 8.5,83.59" fill="none" style="stroke:#000000;stroke-width:1.5;"/><line style="stroke:#000000;stroke-width:1.5;" x1="6" x2="107.2246" y1="105.8869" y2="105.8869"/><text fill="#000000" font-family="sans-serif" font-size="14" font-weight="bold" lengthAdjust="spacing" textLength="88.2246" x="10" y="98.5851">datasource</text></g><path d="M249.57,6 L294.4225,6 A3.75,3.75 0 0 1 296.9225,8.5 L303.9225,28.2969 L308.4225,28.2969 A2.5,2.5 0 0 1 310.9225,30.7969 L310.9225,56.0938 A2.5,2.5 0 0 1 308.4225,58.5938 L249.57,58.5938 A2.5,2.5 0 0 1 247.07,56.0938 L247.07,8.5 A2.5,2.5 0 0 1 249.57,6" fill="#F1F1F1" style="stroke:#181818;stroke-width:0.5;"/><line style="stroke:#181818;stroke-width:0.5;" x1="247.07" x2="303.9225" y1="28.2969" y2="28.2969"/><text fill="#000000" font-family="sans-serif" font-size="14" font-weight="bold" lengthAdjust="spacing" textLength="43.8525" x="251.07" y="20.9951">catan</text><!--class FileLoader--><g class="entity" data-qualified-name="datasource.FileLoader" data-source-line="5" id="ent0004"><rect fill="#F1F1F1" height="113.1875" rx="2.5" ry="2.5" style="stroke:#181818;stroke-width:0.5;" width="272.9961" x="21.5" y="118.59"/><ellipse cx="111.9253" cy="134.59" fill="#ADD1B2" rx="11" ry="11" style="stroke:#181818;stroke-width:1;"/><path d="M114.894,140.2306 Q114.3159,140.5275 113.6753,140.6681 Q113.0347,140.8244 112.3315,140.8244 Q109.8315,140.8244 108.5034,139.1837 Q107.1909,137.5275 107.1909,134.4025 Q107.1909,131.2775 108.5034,129.6212 Q109.8315,127.965 112.3315,127.965 Q113.0347,127.965 113.6753,128.1212 Q114.3315,128.2775 114.894,128.5744 L114.894,131.2931 Q114.269,130.715 113.6753,130.4494 Q113.0815,130.1681 112.4565,130.1681 Q111.1128,130.1681 110.4253,131.2462 Q109.7378,132.3087 109.7378,134.4025 Q109.7378,136.4962 110.4253,137.5744 Q111.1128,138.6369 112.4565,138.6369 Q113.0815,138.6369 113.6753,138.3712 Q114.269,138.09 114.894,137.5119 L114.894,140.2306 Z " fill="#000000"/><g data-visibility-modifier="PUBLIC_METHOD"><ellipse cx="137.4253" cy="134.09" fill="#84BE84" rx="3" ry="3" style="stroke:#038048;stroke-width:1;"/></g><text fill="#000000" font-family="sans-serif" font-size="14" lengthAdjust="spacing" textLength="72.6455" x="143.4253" y="139.4367">FileLoader</text><line style="stroke:#181818;stroke-width:0.5;" x1="22.5" x2="293.4961" y1="150.59" y2="150.59"/><line style="stroke:#181818;stroke-width:0.5;" x1="22.5" x2="293.4961" y1="158.59" y2="158.59"/><g data-visibility-modifier="PUBLIC_METHOD"><ellipse cx="32.5" cy="172.2384" fill="#84BE84" rx="3" ry="3" style="stroke:#038048;stroke-width:1;"/></g><text fill="#000000" font-family="sans-serif" font-size="14" lengthAdjust="spacing" textLength="246.9961" x="41.5" y="175.5851">FileLoader(scanner: CatanScanner)</text><g data-visibility-modifier="PUBLIC_METHOD"><ellipse cx="32.5" cy="188.5353" fill="#84BE84" rx="3" ry="3" style="stroke:#038048;stroke-width:1;"/></g><text fill="#000000" font-family="sans-serif" font-size="14" lengthAdjust="spacing" textLength="162.8457" x="41.5" y="191.882">hasNextLine(): boolean</text><g data-visibility-modifier="PUBLIC_METHOD"><ellipse cx="32.5" cy="204.8322" fill="#84BE84" rx="3" ry="3" style="stroke:#038048;stroke-width:1;"/></g><text fill="#000000" font-family="sans-serif" font-size="14" lengthAdjust="spacing" textLength="122.3086" x="41.5" y="208.1789">nextLine(): String</text><g data-visibility-modifier="PUBLIC_METHOD"><ellipse cx="32.5" cy="221.1291" fill="#84BE84" rx="3" ry="3" style="stroke:#038048;stroke-width:1;"/></g><text fill="#000000" font-family="sans-serif" font-size="14" lengthAdjust="spacing" textLength="85.7773" x="41.5" y="224.4757">close(): void</text></g><!--class CatanScanner--><g class="entity" data-qualified-name="datasource.CatanScanner" data-source-line="12" id="ent0005"><rect fill="#F1F1F1" height="48" rx="2.5" ry="2.5" style="stroke:#181818;stroke-width:0.5;" width="141.5742" x="329.21" y="151.19"/><ellipse cx="344.21" cy="167.19" fill="#ADD1B2" rx="11" ry="11" style="stroke:#181818;stroke-width:1;"/><path d="M347.1788,172.8306 Q346.6006,173.1275 345.96,173.2681 Q345.3194,173.4244 344.6163,173.4244 Q342.1163,173.4244 340.7881,171.7837 Q339.4756,170.1275 339.4756,167.0025 Q339.4756,163.8775 340.7881,162.2212 Q342.1163,160.565 344.6163,160.565 Q345.3194,160.565 345.96,160.7212 Q346.6163,160.8775 347.1788,161.1744 L347.1788,163.8931 Q346.5538,163.315 345.96,163.0494 Q345.3663,162.7681 344.7413,162.7681 Q343.3975,162.7681 342.71,163.8462 Q342.0225,164.9087 342.0225,167.0025 Q342.0225,169.0962 342.71,170.1744 Q343.3975,171.2369 344.7413,171.2369 Q345.3663,171.2369 345.96,170.9712 Q346.5538,170.69 347.1788,170.1119 L347.1788,172.8306 Z " fill="#000000"/><g data-visibility-modifier="PUBLIC_METHOD"><ellipse cx="363.21" cy="166.69" fill="#84BE84" rx="3" ry="3" style="stroke:#038048;stroke-width:1;"/></g><text fill="#000000" font-family="sans-serif" font-size="14" lengthAdjust="spacing" textLength="98.5742" x="369.21" y="172.0367">CatanScanner</text><line style="stroke:#181818;stroke-width:0.5;" x1="330.21" x2="469.7842" y1="183.19" y2="183.19"/><line style="stroke:#181818;stroke-width:0.5;" x1="330.21" x2="469.7842" y1="191.19" y2="191.19"/></g><!--link catan to FileLoader--><g class="link" data-entity-1="ent0002" data-entity-2="ent0004" data-link-type="dependency" data-source-line="16" id="lnk6"><path codeLine="16" d="M257.09,58.81 C242.85,75.38 227.6393,93.0984 209.9893,113.6484" fill="none" id="catan-to-FileLoader" style="stroke:#181818;stroke-width:1;"/><polygon fill="#181818" points="206.08,118.2,214.9784,113.9788,209.3378,114.407,208.9095,108.7664,206.08,118.2" style="stroke:#181818;stroke-width:1;"/></g><!--link catan to CatanScanner--><g class="link" data-entity-1="ent0002" data-entity-2="ent0005" data-link-type="dependency" data-source-line="17" id="lnk7"><path codeLine="17" d="M300.91,58.81 C323.39,84.98 354.1404,120.7886 375.9504,146.1786" fill="none" id="catan-to-CatanScanner" style="stroke:#181818;stroke-width:1;stroke-dasharray:7,7;"/><polygon fill="#181818" points="379.86,150.73,377.0298,141.2965,376.602,146.9372,370.9613,146.5094,379.86,150.73" style="stroke:#181818;stroke-width:1;"/></g><!--link FileLoader to CatanScanner--><g class="link" data-entity-1="ent0004" data-entity-2="ent0005" data-link-type="dependency" data-source-line="18" id="lnk8"><path codeLine="18" d="M294.6,175.19 C305.99,175.19 311.38,175.19 322.77,175.19" fill="none" id="FileLoader-to-CatanScanner" style="stroke:#181818;stroke-width:1;"/><polygon fill="#181818" points="328.77,175.19,319.77,171.19,323.77,175.19,319.77,179.19,328.77,175.19" style="stroke:#181818;stroke-width:1;"/></g><?plantuml-src LOun3eCm34LdSegC81GEmC1IgHFgmWdSn8AeaOEIK5Mgk7jneMeO_Vpz_MRG3nXHQaX0yYrM8UO3cGr5lmID6ozgxI16URKEUmy60yEY_izbr424ePKNxXhsgUBG1F66hzHRmh9gvTrxXq2yeGmFALWQcMhdunSzlJMYs9n-x_Dg5bXPU7TNgili3jWqtUb6PFugs75AwXpu0000?></g></svg>
